<svg width="48" height="48" viewBox="0 0 48 48" fill="none" xmlns="http://www.w3.org/2000/svg">
<rect width="47.5703" height="47.5703" fill="#F5F2EC"/>
<path d="M38.4553 38.5673C37.4234 38.5673 36.6551 38.3035 36.1506 37.7761C35.669 37.2486 35.4282 36.5951 35.4282 35.8154V35.1274C35.4282 34.3248 35.669 33.6712 36.1506 33.1667C36.6551 32.6392 37.4234 32.3755 38.4553 32.3755C39.4873 32.3755 40.244 32.6392 40.7256 33.1667C41.2301 33.6712 41.4824 34.3248 41.4824 35.1274V35.8154C41.4824 36.5951 41.2301 37.2486 40.7256 37.7761C40.244 38.3035 39.4873 38.5673 38.4553 38.5673Z" fill="#111111"/>
<path d="M8.62012 38.1889V14.1785H14.1583L17.3574 20.3015L20.0405 25.4269H20.1093L22.758 20.3015L25.9227 14.1785H31.4953V38.1889H26.5763V26.1493V22.4342H26.4731L24.7187 25.9429L20.0405 34.4394L15.4655 25.9773L13.6423 22.1934H13.5391V26.1493V38.1889H8.62012Z" fill="#111111"/>
</svg>
