<svg width="48" height="48" viewBox="0 0 48 48" fill="none" xmlns="http://www.w3.org/2000/svg">
<rect width="47.5703" height="47.5703" fill="#FBF7F3"/>
<path d="M38.4553 38.5671C37.4234 38.5671 36.6551 38.3034 36.1506 37.776C35.669 37.2485 35.4282 36.595 35.4282 35.8152V35.1273C35.4282 34.3246 35.669 33.6711 36.1506 33.1665C36.6551 32.6391 37.4234 32.3754 38.4553 32.3754C39.4873 32.3754 40.244 32.6391 40.7256 33.1665C41.2301 33.6711 41.4824 34.3246 41.4824 35.1273V35.8152C41.4824 36.595 41.2301 37.2485 40.7256 37.776C40.244 38.3034 39.4873 38.5671 38.4553 38.5671Z" fill="#111111"/>
<path d="M8.62012 38.1888V14.1785H14.1583L17.3574 20.3014L20.0405 25.4269H20.1093L22.758 20.3014L25.9227 14.1785H31.4953V38.1888H26.5763V26.1492V22.4342H26.4731L24.7187 25.9429L20.0405 34.4393L15.4655 25.9772L13.6423 22.1934H13.5391V26.1492V38.1888H8.62012Z" fill="#111111"/>
</svg>
