<svg width="570" height="423" viewBox="0 0 570 423" fill="none" xmlns="http://www.w3.org/2000/svg">
<path d="M516.797 422.454C498.922 422.454 485.615 417.886 476.876 408.75C468.534 399.613 464.363 388.292 464.363 374.786V362.869C464.363 348.966 468.534 337.645 476.876 328.906C485.615 319.77 498.922 315.202 516.797 315.202C534.673 315.202 547.781 319.77 556.123 328.906C564.862 337.645 569.232 348.966 569.232 362.869V374.786C569.232 388.292 564.862 399.613 556.123 408.75C547.781 417.886 534.673 422.454 516.797 422.454Z" fill="#111111"/>
<path d="M0 415.901V0H95.9313L151.345 106.061L197.821 194.842H199.013L244.893 106.061L299.711 0H396.238V415.901H311.032V207.355V143.003H309.244L278.856 203.779L197.821 350.954L118.573 204.375L86.9936 138.832H85.206V207.355V415.901H0Z" fill="#111111"/>
</svg>
